<?xml version="1.0" encoding="utf-8"?>
<!-- Generator: Adobe Illustrator 23.0.4, SVG Export Plug-In . SVG Version: 6.00 Build 0)  -->
<svg version="1.1"
	 id="svg8" xmlns:cc="http://creativecommons.org/ns#" xmlns:dc="http://purl.org/dc/elements/1.1/" xmlns:inkscape="http://www.inkscape.org/namespaces/inkscape" xmlns:rdf="http://www.w3.org/1999/02/22-rdf-syntax-ns#" xmlns:sodipodi="http://sodipodi.sourceforge.net/DTD/sodipodi-0.dtd" xmlns:svg="http://www.w3.org/2000/svg"
	 xmlns="http://www.w3.org/2000/svg" xmlns:xlink="http://www.w3.org/1999/xlink" x="0px" y="0px" viewBox="0 0 466.7 103.6"
	 style="enable-background:new 0 0 466.7 103.6;" xml:space="preserve">
<style type="text/css">
	.st0{fill:url(#rect4585-9-7-9-9_1_);}
	.st1{fill-rule:evenodd;clip-rule:evenodd;fill:#0491CE;}
	.st2{opacity:0.1569;fill-rule:evenodd;clip-rule:evenodd;enable-background:new    ;}
	.st3{opacity:0.1569;enable-background:new    ;}
	.st4{fill-rule:evenodd;clip-rule:evenodd;fill:#05AAF4;}
	.st5{fill:#05AAF4;}
	.st6{fill:#0491CE;}
	.st7{enable-background:new    ;}
</style>
<sodipodi:namedview  bordercolor="#666666" borderopacity="1.0" id="base" inkscape:bbox-nodes="true" inkscape:current-layer="layer1" inkscape:cx="-1781.2092" inkscape:cy="736.37191" inkscape:document-units="mm" inkscape:guide-bbox="true" inkscape:pageopacity="0.0" inkscape:pageshadow="2" inkscape:snap-bbox="true" inkscape:snap-bbox-edge-midpoints="true" inkscape:snap-intersection-paths="true" inkscape:window-height="705" inkscape:window-maximized="1" inkscape:window-width="1366" inkscape:window-x="0" inkscape:window-y="30" inkscape:zoom="0.98994949" pagecolor="#ffffff" showgrid="false" showguides="true">
	<sodipodi:guide  id="guide892" inkscape:locked="false" orientation="1,0" position="-488.68016,204.72327"></sodipodi:guide>
	<sodipodi:guide  id="guide894" inkscape:locked="false" orientation="1,0" position="-391.80285,204.72326"></sodipodi:guide>
</sodipodi:namedview>
<g>
	<g id="g4928">
		<g id="g4810" transform="translate(6.6333384e-6)">
			
				<linearGradient id="rect4585-9-7-9-9_1_" gradientUnits="userSpaceOnUse" x1="-1009.6602" y1="-2039.9301" x2="-1011.4204" y2="-1938.597" gradientTransform="matrix(0.8 0 0 0.8 823.2003 1652.8845)">
				<stop  offset="0" style="stop-color:#048FCE"/>
				<stop  offset="1" style="stop-color:#05AAF4"/>
			</linearGradient>
			<rect id="rect4585-9-7-9-9" x="1.6" class="st0" width="26.7" height="102"/>
			<path id="path5344-3-3-6" inkscape:connector-curvature="0" class="st1" d="M117.3,0L72.8,102H46.1L90.6,0H117.3z"/>
			<g id="path5344-9-5-4" inkscape:connector-curvature="0">
				<polygon class="st2" points="3.2,1.6 47.7,103.6 74.4,103.6 29.9,1.6 				"/>
			</g>
			<g id="path5344-9-5" inkscape:connector-curvature="0">
				<polygon class="st2" points="0,1.6 44.5,103.6 71.2,103.6 26.7,1.6 				"/>
			</g>
			<g id="rect4585-9-7-0-4-5">
				<rect x="89" class="st3" width="26.7" height="102"/>
			</g>
			<path id="path5344-7-8-6-3" inkscape:connector-curvature="0" class="st4" d="M1.6,0l44.5,102h26.7L28.3,0H1.6z"/>
			<rect id="rect4585-9-7-0-2-5-8" x="90.6" class="st5" width="26.7" height="102"/>
		</g>
		<g id="rect4585-9-7-0-2-5-8-1-7-6">
			<rect x="251" y="1.5" class="st3" width="26.7" height="102"/>
		</g>
		<rect id="rect4585-9-7-0-2-5-8-1-7" x="249.5" class="st5" width="26.7" height="102"/>
		<g id="rect4585-9-7-0-2-5-8-9-2-2" inkscape:connector-curvature="0">
			<polygon class="st3" points="134.6,1.5 134.6,76.8 161.3,103.5 208.6,103.5 235.3,76.8 235.3,1.5 208.6,1.5 208.6,76.8 
				161.3,76.8 161.3,1.5 			"/>
		</g>
		<g id="g4856">
			<path id="rect4585-9-7-0-2-5-8-9-2" inkscape:connector-curvature="0" sodipodi:nodetypes="ccccc" class="st6" d="M233.8,75.3
				L207.1,102h-47.3l-26.7-26.7H233.8z"/>
			<g id="path4812" inkscape:connector-curvature="0">
				<polygon class="st3" points="134.6,0 161.3,0 161.3,102 134.6,75.3 				"/>
			</g>
			<path id="path4780" inkscape:connector-curvature="0" class="st5" d="M133.1,0h26.7v102l-26.7-26.7V0z"/>
			<g id="path4812-0" inkscape:connector-curvature="0">
				<polygon class="st3" points="232.3,0 205.6,0 205.6,102 232.3,75.3 				"/>
			</g>
			<path id="path4780-9" inkscape:connector-curvature="0" class="st5" d="M233.8,0h-26.7v102l26.7-26.7V0z"/>
		</g>
	</g>
	<g class="st7">
		<path class="st5" d="M295.8,43.4h-2.9V1.2h23.1v2.7h-20.2v17.9h19v2.7h-19V43.4z"/>
		<path class="st5" d="M357.9,22.2c0,6.7-1.7,12-5,15.9c-3.3,3.9-8,5.8-13.9,5.8c-5.9,0-10.5-1.9-13.8-5.8c-3.3-3.9-5-9.2-5-15.9
			c0-6.7,1.7-12,5.1-15.9c3.4-3.9,8-5.8,13.8-5.8c5.9,0,10.5,1.9,13.8,5.8C356.3,10.2,357.9,15.5,357.9,22.2z M323.4,22.2
			c0,6,1.3,10.7,4,14c2.7,3.3,6.6,4.9,11.6,4.9c5.1,0,9-1.6,11.6-4.9c2.7-3.3,4-8,4-14.1c0-6.1-1.3-10.7-4-14
			c-2.7-3.2-6.5-4.9-11.6-4.9c-5,0-8.9,1.6-11.6,4.9S323.4,16.2,323.4,22.2z"/>
		<path class="st5" d="M370.6,25v18.4h-2.9V1.2h10c5.2,0,9.1,1,11.6,2.9s3.8,4.8,3.8,8.7c0,2.8-0.7,5.2-2.2,7.2
			c-1.5,1.9-3.8,3.3-6.8,4.2l11.5,19.2h-3.5L381.1,25H370.6z M370.6,22.5h8.1c3.6,0,6.3-0.8,8.3-2.4c2-1.6,2.9-3.9,2.9-7
			c0-3.2-1-5.6-2.9-7s-5.1-2.2-9.4-2.2h-7V22.5z"/>
		<path class="st5" d="M421.3,43.4l-15.7-39h-0.2c0.2,2.4,0.2,4.8,0.2,7.3v31.6h-2.8V1.2h4.6l14.9,37.1h0.2l14.9-37.1h4.4v42.2h-3
			v-32c0-2.2,0.1-4.5,0.3-6.9H439l-15.8,38.9H421.3z"/>
	</g>
	<g class="st7">
		<path class="st5" d="M295.8,102.2h-2.9V60h23.1v2.7h-20.2v17.9h19v2.7h-19V102.2z"/>
		<path class="st5" d="M322.5,102.2V60h2.9v42.2H322.5z"/>
		<path class="st5" d="M360.4,102.2h-23.1V60h23.1v2.7h-20.1v16h19v2.7h-19v18.1h20.1V102.2z"/>
		<path class="st5" d="M370,102.2V60h2.9v39.4H393v2.8H370z"/>
		<path class="st5" d="M432.3,80.7c0,7.1-1.9,12.4-5.6,16.1s-9.2,5.4-16.4,5.4h-10.1V60h11.4c6.7,0,11.9,1.8,15.4,5.3
			C430.6,68.8,432.3,73.9,432.3,80.7z M429.1,80.8c0-6-1.5-10.6-4.6-13.6c-3.1-3-7.6-4.6-13.5-4.6h-7.8v37h7
			C422.8,99.6,429.1,93.3,429.1,80.8z"/>
		<path class="st5" d="M465.3,91.3c0,3.5-1.3,6.3-3.9,8.4c-2.6,2.1-6,3.1-10.3,3.1c-5.2,0-9.1-0.6-11.9-1.7v-2.9
			c3,1.3,6.9,1.9,11.6,1.9c3.5,0,6.2-0.8,8.2-2.4c2-1.6,3-3.7,3-6.2c0-1.6-0.3-2.9-1-4s-1.8-2-3.3-2.9c-1.5-0.9-3.8-1.8-6.7-2.8
			c-4.3-1.5-7.3-3.1-8.9-4.8c-1.6-1.7-2.5-4-2.5-6.9c0-3.2,1.2-5.7,3.7-7.7c2.5-2,5.7-3,9.5-3c4,0,7.7,0.8,11.2,2.3l-1.1,2.5
			c-3.5-1.5-6.8-2.2-10-2.2c-3.1,0-5.6,0.7-7.4,2.2c-1.8,1.4-2.8,3.4-2.8,5.9c0,1.6,0.3,2.8,0.9,3.8c0.6,1,1.5,1.9,2.8,2.7
			c1.3,0.8,3.5,1.8,6.6,2.9c3.3,1.1,5.8,2.2,7.4,3.3c1.7,1.1,2.9,2.3,3.6,3.6C464.9,87.8,465.3,89.4,465.3,91.3z"/>
	</g>
</g>
</svg>
