<?xml version="1.0" encoding="utf-8"?>
<!-- Generator: Adobe Illustrator 23.0.4, SVG Export Plug-In . SVG Version: 6.00 Build 0)  -->
<svg version="1.1"
	 id="svg8" xmlns:cc="http://creativecommons.org/ns#" xmlns:dc="http://purl.org/dc/elements/1.1/" xmlns:inkscape="http://www.inkscape.org/namespaces/inkscape" xmlns:rdf="http://www.w3.org/1999/02/22-rdf-syntax-ns#" xmlns:sodipodi="http://sodipodi.sourceforge.net/DTD/sodipodi-0.dtd" xmlns:svg="http://www.w3.org/2000/svg"
	 xmlns="http://www.w3.org/2000/svg" xmlns:xlink="http://www.w3.org/1999/xlink" x="0px" y="0px" viewBox="0 0 277.7 152.6"
	 style="enable-background:new 0 0 277.7 152.6;" xml:space="preserve">
<style type="text/css">
	.st0{fill:url(#rect4585-9-7-9-9_1_);}
	.st1{fill-rule:evenodd;clip-rule:evenodd;fill:#0491CE;}
	.st2{opacity:0.1569;fill-rule:evenodd;clip-rule:evenodd;enable-background:new    ;}
	.st3{opacity:0.1569;enable-background:new    ;}
	.st4{fill-rule:evenodd;clip-rule:evenodd;fill:#05AAF4;}
	.st5{fill:#05AAF4;}
	.st6{fill:#0491CE;}
</style>
<sodipodi:namedview  bordercolor="#666666" borderopacity="1.0" id="base" inkscape:bbox-nodes="true" inkscape:current-layer="layer1" inkscape:cx="-1781.2092" inkscape:cy="736.37191" inkscape:document-units="mm" inkscape:guide-bbox="true" inkscape:pageopacity="0.0" inkscape:pageshadow="2" inkscape:snap-bbox="true" inkscape:snap-bbox-edge-midpoints="true" inkscape:snap-intersection-paths="true" inkscape:window-height="705" inkscape:window-maximized="1" inkscape:window-width="1366" inkscape:window-x="0" inkscape:window-y="30" inkscape:zoom="0.98994949" pagecolor="#ffffff" showgrid="false" showguides="true">
	<sodipodi:guide  id="guide892" inkscape:locked="false" orientation="1,0" position="-488.68016,204.72327"></sodipodi:guide>
	<sodipodi:guide  id="guide894" inkscape:locked="false" orientation="1,0" position="-391.80285,204.72326"></sodipodi:guide>
</sodipodi:namedview>
<g>
	<g id="g4928">
		<g id="g4810" transform="translate(6.6333384e-6)">
			
				<linearGradient id="rect4585-9-7-9-9_1_" gradientUnits="userSpaceOnUse" x1="-986.1602" y1="-2045.9301" x2="-987.9204" y2="-1944.597" gradientTransform="matrix(0.8 0 0 0.8 804.4003 1657.6844)">
				<stop  offset="0" style="stop-color:#048FCE"/>
				<stop  offset="1" style="stop-color:#05AAF4"/>
			</linearGradient>
			<rect id="rect4585-9-7-9-9" x="1.6" class="st0" width="26.7" height="102"/>
			<path id="path5344-3-3-6" inkscape:connector-curvature="0" class="st1" d="M117.3,0L72.8,102H46.1L90.6,0H117.3z"/>
			<g id="path5344-9-5-4" inkscape:connector-curvature="0">
				<polygon class="st2" points="3.2,1.6 47.7,103.6 74.4,103.6 29.9,1.6 				"/>
			</g>
			<g id="path5344-9-5" inkscape:connector-curvature="0">
				<polygon class="st2" points="0,1.6 44.5,103.6 71.2,103.6 26.7,1.6 				"/>
			</g>
			<g id="rect4585-9-7-0-4-5">
				<rect x="89" class="st3" width="26.7" height="102"/>
			</g>
			<path id="path5344-7-8-6-3" inkscape:connector-curvature="0" class="st4" d="M1.6,0l44.5,102h26.7L28.3,0H1.6z"/>
			<rect id="rect4585-9-7-0-2-5-8" x="90.6" class="st5" width="26.7" height="102"/>
		</g>
		<g id="rect4585-9-7-0-2-5-8-1-7-6">
			<rect x="251" y="1.5" class="st3" width="26.7" height="102"/>
		</g>
		<rect id="rect4585-9-7-0-2-5-8-1-7" x="249.5" class="st5" width="26.7" height="102"/>
		<g id="rect4585-9-7-0-2-5-8-9-2-2" inkscape:connector-curvature="0">
			<polygon class="st3" points="134.6,1.5 134.6,76.8 161.3,103.5 208.6,103.5 235.3,76.8 235.3,1.5 208.6,1.5 208.6,76.8 
				161.3,76.8 161.3,1.5 			"/>
		</g>
		<g id="g4856">
			<path id="rect4585-9-7-0-2-5-8-9-2" inkscape:connector-curvature="0" sodipodi:nodetypes="ccccc" class="st6" d="M233.8,75.3
				L207.1,102h-47.3l-26.7-26.7H233.8z"/>
			<g id="path4812" inkscape:connector-curvature="0">
				<polygon class="st3" points="134.6,0 161.3,0 161.3,102 134.6,75.3 				"/>
			</g>
			<path id="path4780" inkscape:connector-curvature="0" class="st5" d="M133.1,0h26.7v102l-26.7-26.7V0z"/>
			<g id="path4812-0" inkscape:connector-curvature="0">
				<polygon class="st3" points="232.3,0 205.6,0 205.6,102 232.3,75.3 				"/>
			</g>
			<path id="path4780-9" inkscape:connector-curvature="0" class="st5" d="M233.8,0h-26.7v102l26.7-26.7V0z"/>
		</g>
	</g>
	<path class="st5" d="M8.2,151.4H6v-31.1h17v2H8.2v13.2h14v2h-14V151.4z"/>
	<path class="st5" d="M53.9,135.8c0,4.9-1.2,8.8-3.7,11.7c-2.5,2.9-5.9,4.3-10.2,4.3c-4.3,0-7.7-1.4-10.2-4.3
		c-2.5-2.9-3.7-6.8-3.7-11.7c0-4.9,1.2-8.8,3.7-11.7c2.5-2.8,5.9-4.3,10.2-4.3c4.3,0,7.7,1.4,10.2,4.3
		C52.7,127,53.9,130.9,53.9,135.8z M28.5,135.8c0,4.4,1,7.9,3,10.3c2,2.4,4.8,3.6,8.5,3.6c3.7,0,6.6-1.2,8.6-3.6c2-2.4,3-5.9,3-10.3
		c0-4.5-1-7.9-3-10.3c-2-2.4-4.8-3.6-8.5-3.6c-3.7,0-6.5,1.2-8.5,3.6C29.5,128,28.5,131.4,28.5,135.8z"/>
	<path class="st5" d="M63.2,137.8v13.5h-2.2v-31.1h7.4c3.9,0,6.7,0.7,8.5,2.1c1.8,1.4,2.8,3.6,2.8,6.4c0,2.1-0.5,3.8-1.6,5.3
		c-1.1,1.4-2.8,2.5-5,3.1l8.4,14.1H79l-8-13.5H63.2z M63.2,136h5.9c2.6,0,4.7-0.6,6.1-1.8c1.4-1.2,2.2-2.9,2.2-5.2
		c0-2.4-0.7-4.1-2.1-5.2c-1.4-1.1-3.7-1.6-6.9-1.6h-5.1V136z"/>
	<path class="st5" d="M100.6,151.4L89,122.7h-0.2c0.1,1.8,0.2,3.6,0.2,5.4v23.3h-2.1v-31.1h3.4l11,27.3h0.1l11-27.3h3.3v31.1h-2.2
		v-23.5c0-1.6,0.1-3.3,0.3-5.1h-0.2L102,151.4H100.6z"/>
	<path class="st5" d="M149.2,151.4h-2.2v-31.1h17v2h-14.8v13.2h14v2h-14V151.4z"/>
	<path class="st5" d="M168.9,151.4v-31.1h2.2v31.1H168.9z"/>
	<path class="st5" d="M196.8,151.4h-17v-31.1h17v2H182v11.7h14v2h-14v13.3h14.8V151.4z"/>
	<path class="st5" d="M203.9,151.4v-31.1h2.2v29h14.8v2H203.9z"/>
	<path class="st5" d="M249.8,135.6c0,5.2-1.4,9.2-4.1,11.8c-2.7,2.7-6.7,4-12,4h-7.4v-31.1h8.4c5,0,8.7,1.3,11.3,3.9
		C248.5,126.8,249.8,130.6,249.8,135.6z M247.4,135.6c0-4.4-1.1-7.8-3.4-10c-2.3-2.2-5.6-3.4-10-3.4h-5.7v27.2h5.1
		C242.8,149.5,247.4,144.9,247.4,135.6z"/>
	<path class="st5" d="M274,143.4c0,2.6-1,4.6-2.9,6.2c-1.9,1.5-4.4,2.3-7.6,2.3c-3.8,0-6.7-0.4-8.7-1.3v-2.2
		c2.2,0.9,5.1,1.4,8.6,1.4c2.5,0,4.6-0.6,6.1-1.8s2.2-2.7,2.2-4.6c0-1.2-0.2-2.1-0.7-2.9c-0.5-0.8-1.3-1.5-2.4-2.1
		c-1.1-0.6-2.8-1.3-4.9-2.1c-3.2-1.1-5.4-2.3-6.6-3.5c-1.2-1.3-1.8-3-1.8-5.1c0-2.3,0.9-4.2,2.7-5.7c1.8-1.5,4.2-2.2,7-2.2
		c2.9,0,5.7,0.6,8.2,1.7l-0.8,1.9c-2.6-1.1-5-1.6-7.4-1.6c-2.3,0-4.1,0.5-5.5,1.6c-1.4,1.1-2,2.5-2,4.3c0,1.1,0.2,2.1,0.6,2.8
		s1.1,1.4,2.1,2c0.9,0.6,2.6,1.3,4.9,2.1c2.4,0.8,4.2,1.6,5.5,2.4c1.2,0.8,2.1,1.7,2.7,2.7C273.8,140.7,274,142,274,143.4z"/>
</g>
</svg>
